<?xml version="1.0" encoding="UTF-8" standalone="no"?>
<!DOCTYPE svg PUBLIC "-//W3C//DTD SVG 1.1//EN"
 "http://www.w3.org/Graphics/SVG/1.1/DTD/svg11.dtd">
<!-- Generated by graphviz version 2.26.3 (20100126.1600)
 -->
<!-- Title: G Pages: 1 -->
<svg width="1234pt" height="1840pt"
 viewBox="0.00 0.00 1234.00 1840.00" xmlns="http://www.w3.org/2000/svg" xmlns:xlink="http://www.w3.org/1999/xlink">
<g id="graph1" class="graph" transform="scale(1 1) rotate(0) translate(4 1836)">
<title>G</title>
<polygon fill="white" stroke="white" points="-4,5 -4,-1836 1231,-1836 1231,5 -4,5"/>
<g id="graph2" class="cluster"><title>cluster_Global</title>
<polyline fill="none" stroke="gray" points="20,-98 1206,-98 "/>
<path fill="none" stroke="gray" d="M1206,-98C1212,-98 1218,-104 1218,-110"/>
<polyline fill="none" stroke="gray" points="1218,-110 1218,-1812 "/>
<path fill="none" stroke="gray" d="M1218,-1812C1218,-1818 1212,-1824 1206,-1824"/>
<polyline fill="none" stroke="gray" points="1206,-1824 20,-1824 "/>
<path fill="none" stroke="gray" d="M20,-1824C14,-1824 8,-1818 8,-1812"/>
<polyline fill="none" stroke="gray" points="8,-1812 8,-110 "/>
<path fill="none" stroke="gray" d="M8,-110C8,-104 14,-98 20,-98"/>
<text text-anchor="middle" x="613" y="-1810.1" font-family="Times Roman,serif" font-size="11.00" fill="gray">Global</text>
</g>
<g id="graph3" class="cluster"><title>cluster_\Freyja</title>
<polyline fill="none" stroke="gray" points="28,-264 1198,-264 "/>
<path fill="none" stroke="gray" d="M1198,-264C1204,-264 1210,-270 1210,-276"/>
<polyline fill="none" stroke="gray" points="1210,-276 1210,-1782 "/>
<path fill="none" stroke="gray" d="M1210,-1782C1210,-1788 1204,-1794 1198,-1794"/>
<polyline fill="none" stroke="gray" points="1198,-1794 28,-1794 "/>
<path fill="none" stroke="gray" d="M28,-1794C22,-1794 16,-1788 16,-1782"/>
<polyline fill="none" stroke="gray" points="16,-1782 16,-276 "/>
<path fill="none" stroke="gray" d="M16,-276C16,-270 22,-264 28,-264"/>
<text text-anchor="middle" x="613" y="-1780.1" font-family="Times Roman,serif" font-size="11.00" fill="gray">Freyja</text>
</g>
<g id="graph4" class="cluster"><title>cluster_\Freyja\CLI</title>
<polyline fill="none" stroke="gray" points="36,-272 1190,-272 "/>
<path fill="none" stroke="gray" d="M1190,-272C1196,-272 1202,-278 1202,-284"/>
<polyline fill="none" stroke="gray" points="1202,-284 1202,-1752 "/>
<path fill="none" stroke="gray" d="M1202,-1752C1202,-1758 1196,-1764 1190,-1764"/>
<polyline fill="none" stroke="gray" points="1190,-1764 36,-1764 "/>
<path fill="none" stroke="gray" d="M36,-1764C30,-1764 24,-1758 24,-1752"/>
<polyline fill="none" stroke="gray" points="24,-1752 24,-284 "/>
<path fill="none" stroke="gray" d="M24,-284C24,-278 30,-272 36,-272"/>
<text text-anchor="middle" x="613" y="-1750.1" font-family="Times Roman,serif" font-size="11.00" fill="gray">CLI</text>
</g>
<g id="graph5" class="cluster"><title>cluster_\Freyja\CLI\Commands</title>
<polyline fill="none" stroke="gray" points="662,-1552 1155,-1552 "/>
<path fill="none" stroke="gray" d="M1155,-1552C1161,-1552 1167,-1558 1167,-1564"/>
<polyline fill="none" stroke="gray" points="1167,-1564 1167,-1722 "/>
<path fill="none" stroke="gray" d="M1167,-1722C1167,-1728 1161,-1734 1155,-1734"/>
<polyline fill="none" stroke="gray" points="1155,-1734 662,-1734 "/>
<path fill="none" stroke="gray" d="M662,-1734C656,-1734 650,-1728 650,-1722"/>
<polyline fill="none" stroke="gray" points="650,-1722 650,-1564 "/>
<path fill="none" stroke="gray" d="M650,-1564C650,-1558 656,-1552 662,-1552"/>
<text text-anchor="middle" x="908.5" y="-1720.1" font-family="Times Roman,serif" font-size="11.00" fill="gray">Commands</text>
</g>
<g id="graph6" class="cluster"><title>cluster_\Freyja\CLI\Input</title>
<polyline fill="none" stroke="gray" points="261,-1200 1165,-1200 "/>
<path fill="none" stroke="gray" d="M1165,-1200C1171,-1200 1177,-1206 1177,-1212"/>
<polyline fill="none" stroke="gray" points="1177,-1212 1177,-1532 "/>
<path fill="none" stroke="gray" d="M1177,-1532C1177,-1538 1171,-1544 1165,-1544"/>
<polyline fill="none" stroke="gray" points="1165,-1544 261,-1544 "/>
<path fill="none" stroke="gray" d="M261,-1544C255,-1544 249,-1538 249,-1532"/>
<polyline fill="none" stroke="gray" points="249,-1532 249,-1212 "/>
<path fill="none" stroke="gray" d="M249,-1212C249,-1206 255,-1200 261,-1200"/>
<text text-anchor="middle" x="713" y="-1530.1" font-family="Times Roman,serif" font-size="11.00" fill="gray">Input</text>
</g>
<g id="graph7" class="cluster"><title>cluster_\Freyja\CLI\Exceptions</title>
<polyline fill="none" stroke="gray" points="1010,-1064 1182,-1064 "/>
<path fill="none" stroke="gray" d="M1182,-1064C1188,-1064 1194,-1070 1194,-1076"/>
<polyline fill="none" stroke="gray" points="1194,-1076 1194,-1180 "/>
<path fill="none" stroke="gray" d="M1194,-1180C1194,-1186 1188,-1192 1182,-1192"/>
<polyline fill="none" stroke="gray" points="1182,-1192 1010,-1192 "/>
<path fill="none" stroke="gray" d="M1010,-1192C1004,-1192 998,-1186 998,-1180"/>
<polyline fill="none" stroke="gray" points="998,-1180 998,-1076 "/>
<path fill="none" stroke="gray" d="M998,-1076C998,-1070 1004,-1064 1010,-1064"/>
<text text-anchor="middle" x="1096" y="-1178.1" font-family="Times Roman,serif" font-size="11.00" fill="gray">Exceptions</text>
</g>
<g id="graph8" class="cluster"><title>cluster_\Freyja\CLI\Testers</title>
<polyline fill="none" stroke="gray" points="1048,-982 1144,-982 "/>
<path fill="none" stroke="gray" d="M1144,-982C1150,-982 1156,-988 1156,-994"/>
<polyline fill="none" stroke="gray" points="1156,-994 1156,-1044 "/>
<path fill="none" stroke="gray" d="M1156,-1044C1156,-1050 1150,-1056 1144,-1056"/>
<polyline fill="none" stroke="gray" points="1144,-1056 1048,-1056 "/>
<path fill="none" stroke="gray" d="M1048,-1056C1042,-1056 1036,-1050 1036,-1044"/>
<polyline fill="none" stroke="gray" points="1036,-1044 1036,-994 "/>
<path fill="none" stroke="gray" d="M1036,-994C1036,-988 1042,-982 1048,-982"/>
<text text-anchor="middle" x="1096" y="-1042.1" font-family="Times Roman,serif" font-size="11.00" fill="gray">Testers</text>
</g>
<g id="graph9" class="cluster"><title>cluster_\Freyja\CLI\Helpers</title>
<polyline fill="none" stroke="gray" points="258,-792 1155,-792 "/>
<path fill="none" stroke="gray" d="M1155,-792C1161,-792 1167,-798 1167,-804"/>
<polyline fill="none" stroke="gray" points="1167,-804 1167,-962 "/>
<path fill="none" stroke="gray" d="M1167,-962C1167,-968 1161,-974 1155,-974"/>
<polyline fill="none" stroke="gray" points="1155,-974 258,-974 "/>
<path fill="none" stroke="gray" d="M258,-974C252,-974 246,-968 246,-962"/>
<polyline fill="none" stroke="gray" points="246,-962 246,-804 "/>
<path fill="none" stroke="gray" d="M246,-804C246,-798 252,-792 258,-792"/>
<text text-anchor="middle" x="706.5" y="-960.1" font-family="Times Roman,serif" font-size="11.00" fill="gray">Helpers</text>
</g>
<g id="graph10" class="cluster"><title>cluster_\Freyja\CLI\Output</title>
<polyline fill="none" stroke="gray" points="44,-582 1144,-582 "/>
<path fill="none" stroke="gray" d="M1144,-582C1150,-582 1156,-588 1156,-594"/>
<polyline fill="none" stroke="gray" points="1156,-594 1156,-772 "/>
<path fill="none" stroke="gray" d="M1156,-772C1156,-778 1150,-784 1144,-784"/>
<polyline fill="none" stroke="gray" points="1144,-784 44,-784 "/>
<path fill="none" stroke="gray" d="M44,-784C38,-784 32,-778 32,-772"/>
<polyline fill="none" stroke="gray" points="32,-772 32,-594 "/>
<path fill="none" stroke="gray" d="M32,-594C32,-588 38,-582 44,-582"/>
<text text-anchor="middle" x="594" y="-770.1" font-family="Times Roman,serif" font-size="11.00" fill="gray">Output</text>
</g>
<g id="graph11" class="cluster"><title>cluster_\Freyja\CLI\Formatters</title>
<polyline fill="none" stroke="gray" points="615,-362 1151,-362 "/>
<path fill="none" stroke="gray" d="M1151,-362C1157,-362 1163,-368 1163,-374"/>
<polyline fill="none" stroke="gray" points="1163,-374 1163,-562 "/>
<path fill="none" stroke="gray" d="M1163,-562C1163,-568 1157,-574 1151,-574"/>
<polyline fill="none" stroke="gray" points="1151,-574 615,-574 "/>
<path fill="none" stroke="gray" d="M615,-574C609,-574 603,-568 603,-562"/>
<polyline fill="none" stroke="gray" points="603,-562 603,-374 "/>
<path fill="none" stroke="gray" d="M603,-374C603,-368 609,-362 615,-362"/>
<text text-anchor="middle" x="883" y="-560.1" font-family="Times Roman,serif" font-size="11.00" fill="gray">Formatters</text>
</g>
<g id="graph12" class="cluster"><title>cluster_\Freyja\CLI\Formatters\Styles</title>
<polyline fill="none" stroke="gray" points="649,-416 1134,-416 "/>
<path fill="none" stroke="gray" d="M1134,-416C1140,-416 1146,-422 1146,-428"/>
<polyline fill="none" stroke="gray" points="1146,-428 1146,-532 "/>
<path fill="none" stroke="gray" d="M1146,-532C1146,-538 1140,-544 1134,-544"/>
<polyline fill="none" stroke="gray" points="1134,-544 649,-544 "/>
<path fill="none" stroke="gray" d="M649,-544C643,-544 637,-538 637,-532"/>
<polyline fill="none" stroke="gray" points="637,-532 637,-428 "/>
<path fill="none" stroke="gray" d="M637,-428C637,-422 643,-416 649,-416"/>
<text text-anchor="middle" x="891.5" y="-530.1" font-family="Times Roman,serif" font-size="11.00" fill="gray">Styles</text>
</g>
<g id="graph13" class="cluster"><title>cluster_\Freyja\CLI\Descriptors</title>
<polyline fill="none" stroke="gray" points="244,-280 1148,-280 "/>
<path fill="none" stroke="gray" d="M1148,-280C1154,-280 1160,-286 1160,-292"/>
<polyline fill="none" stroke="gray" points="1160,-292 1160,-342 "/>
<path fill="none" stroke="gray" d="M1160,-342C1160,-348 1154,-354 1148,-354"/>
<polyline fill="none" stroke="gray" points="1148,-354 244,-354 "/>
<path fill="none" stroke="gray" d="M244,-354C238,-354 232,-348 232,-342"/>
<polyline fill="none" stroke="gray" points="232,-342 232,-292 "/>
<path fill="none" stroke="gray" d="M232,-292C232,-286 238,-280 244,-280"/>
<text text-anchor="middle" x="696" y="-340.1" font-family="Times Roman,serif" font-size="11.00" fill="gray">Descriptors</text>
</g>
<g id="graph14" class="cluster"><title>cluster_\SqueezyWeb</title>
<polyline fill="none" stroke="gray" points="1045,-106 1147,-106 "/>
<path fill="none" stroke="gray" d="M1147,-106C1153,-106 1159,-112 1159,-118"/>
<polyline fill="none" stroke="gray" points="1159,-118 1159,-244 "/>
<path fill="none" stroke="gray" d="M1159,-244C1159,-250 1153,-256 1147,-256"/>
<polyline fill="none" stroke="gray" points="1147,-256 1045,-256 "/>
<path fill="none" stroke="gray" d="M1045,-256C1039,-256 1033,-250 1033,-244"/>
<polyline fill="none" stroke="gray" points="1033,-244 1033,-118 "/>
<path fill="none" stroke="gray" d="M1033,-118C1033,-112 1039,-106 1045,-106"/>
<text text-anchor="middle" x="1096" y="-242.1" font-family="Times Roman,serif" font-size="11.00" fill="gray">SqueezyWeb</text>
</g>
<g id="graph15" class="cluster"><title>cluster_\SqueezyWeb\Freyja</title>
<polyline fill="none" stroke="gray" points="1053,-114 1139,-114 "/>
<path fill="none" stroke="gray" d="M1139,-114C1145,-114 1151,-120 1151,-126"/>
<polyline fill="none" stroke="gray" points="1151,-126 1151,-214 "/>
<path fill="none" stroke="gray" d="M1151,-214C1151,-220 1145,-226 1139,-226"/>
<polyline fill="none" stroke="gray" points="1139,-226 1053,-226 "/>
<path fill="none" stroke="gray" d="M1053,-226C1047,-226 1041,-220 1041,-214"/>
<polyline fill="none" stroke="gray" points="1041,-214 1041,-126 "/>
<path fill="none" stroke="gray" d="M1041,-126C1041,-120 1047,-114 1053,-114"/>
<text text-anchor="middle" x="1096" y="-212.1" font-family="Times Roman,serif" font-size="11.00" fill="gray">Freyja</text>
</g>
<g id="graph16" class="cluster"><title>cluster_\SqueezyWeb\Freyja\CLI</title>
<polyline fill="none" stroke="gray" points="1061,-122 1131,-122 "/>
<path fill="none" stroke="gray" d="M1131,-122C1137,-122 1143,-128 1143,-134"/>
<polyline fill="none" stroke="gray" points="1143,-134 1143,-184 "/>
<path fill="none" stroke="gray" d="M1143,-184C1143,-190 1137,-196 1131,-196"/>
<polyline fill="none" stroke="gray" points="1131,-196 1061,-196 "/>
<path fill="none" stroke="gray" d="M1061,-196C1055,-196 1049,-190 1049,-184"/>
<polyline fill="none" stroke="gray" points="1049,-184 1049,-134 "/>
<path fill="none" stroke="gray" d="M1049,-134C1049,-128 1055,-122 1061,-122"/>
<text text-anchor="middle" x="1096" y="-182.1" font-family="Times Roman,serif" font-size="11.00" fill="gray">CLI</text>
</g>
<!-- \\Freyja\\CLI\\Commands\\ListCommand -->
<g id="node5" class="node"><title>\\Freyja\\CLI\\Commands\\ListCommand</title>
<polygon fill="none" stroke="black" points="1141,-1704 1051,-1704 1051,-1668 1141,-1668 1141,-1704"/>
<text text-anchor="middle" x="1096" y="-1683.1" font-family="Courier,monospace" font-size="11.00">ListCommand</text>
</g>
<!-- \\Freyja\\CLI\\Commands\\Command -->
<g id="node7" class="node"><title>\\Freyja\\CLI\\Commands\\Command</title>
<polygon fill="none" stroke="black" points="743,-1677 659,-1677 659,-1641 743,-1641 743,-1677"/>
<text text-anchor="start" x="667" y="-1664.43" font-family="Courier,monospace" font-size="11.00">«abstract»</text>
<text text-anchor="start" x="677" y="-1651.23" font-family="Courier,monospace" font-size="11.00">Command</text>
</g>
<!-- \\Freyja\\CLI\\Commands\\ListCommand&#45;&gt;\\Freyja\\CLI\\Commands\\Command -->
<g id="edge17" class="edge"><title>\\Freyja\\CLI\\Commands\\ListCommand&#45;&gt;\\Freyja\\CLI\\Commands\\Command</title>
<path fill="none" stroke="black" d="M1050.3,-1682.88C976.546,-1677.83 831.662,-1667.93 753.675,-1662.6"/>
<polygon fill="none" stroke="black" points="753.804,-1659.1 743.588,-1661.91 753.326,-1666.08 753.804,-1659.1"/>
</g>
<!-- \\Freyja\\CLI\\Commands\\HelpCommand -->
<g id="node6" class="node"><title>\\Freyja\\CLI\\Commands\\HelpCommand</title>
<polygon fill="none" stroke="black" points="1141,-1650 1051,-1650 1051,-1614 1141,-1614 1141,-1650"/>
<text text-anchor="middle" x="1096" y="-1629.1" font-family="Courier,monospace" font-size="11.00">HelpCommand</text>
</g>
<!-- \\Freyja\\CLI\\Commands\\HelpCommand&#45;&gt;\\Freyja\\CLI\\Commands\\Command -->
<g id="edge19" class="edge"><title>\\Freyja\\CLI\\Commands\\HelpCommand&#45;&gt;\\Freyja\\CLI\\Commands\\Command</title>
<path fill="none" stroke="black" d="M1050.3,-1635.12C976.546,-1640.17 831.662,-1650.07 753.675,-1655.4"/>
<polygon fill="none" stroke="black" points="753.326,-1651.92 743.588,-1656.09 753.804,-1658.9 753.326,-1651.92"/>
</g>
<!-- \\Freyja\\CLI\\Commands\\CommandInterface -->
<g id="node8" class="node"><title>\\Freyja\\CLI\\Commands\\CommandInterface</title>
<polygon fill="none" stroke="black" points="1158,-1596 1034,-1596 1034,-1560 1158,-1560 1158,-1596"/>
<text text-anchor="middle" x="1096" y="-1575.1" font-family="Courier,monospace" font-size="11.00">CommandInterface</text>
</g>
<!-- \\Freyja\\CLI\\Input\\ArgvInput -->
<g id="node10" class="node"><title>\\Freyja\\CLI\\Input\\ArgvInput</title>
<polygon fill="none" stroke="black" points="1134,-1514 1058,-1514 1058,-1478 1134,-1478 1134,-1514"/>
<text text-anchor="middle" x="1096" y="-1493.1" font-family="Courier,monospace" font-size="11.00">ArgvInput</text>
</g>
<!-- \\Freyja\\CLI\\Input\\Input -->
<g id="node11" class="node"><title>\\Freyja\\CLI\\Input\\Input</title>
<polygon fill="none" stroke="black" points="743,-1460 659,-1460 659,-1424 743,-1424 743,-1460"/>
<text text-anchor="start" x="667" y="-1447.43" font-family="Courier,monospace" font-size="11.00">«abstract»</text>
<text text-anchor="start" x="684" y="-1434.23" font-family="Courier,monospace" font-size="11.00">Input</text>
</g>
<!-- \\Freyja\\CLI\\Input\\ArgvInput&#45;&gt;\\Freyja\\CLI\\Input\\Input -->
<g id="edge21" class="edge"><title>\\Freyja\\CLI\\Input\\ArgvInput&#45;&gt;\\Freyja\\CLI\\Input\\Input</title>
<path fill="none" stroke="black" d="M1057.41,-1490.72C986.199,-1480.99 834.089,-1460.19 753.547,-1449.18"/>
<polygon fill="none" stroke="black" points="753.999,-1445.71 743.617,-1447.83 753.051,-1452.65 753.999,-1445.71"/>
</g>
<!-- \\Freyja\\CLI\\Input\\InputInterface -->
<g id="node17" class="node"><title>\\Freyja\\CLI\\Input\\InputInterface</title>
<polygon fill="none" stroke="black" points="368,-1460 258,-1460 258,-1424 368,-1424 368,-1460"/>
<text text-anchor="middle" x="313" y="-1439.1" font-family="Courier,monospace" font-size="11.00">InputInterface</text>
</g>
<!-- \\Freyja\\CLI\\Input\\Input&#45;&gt;\\Freyja\\CLI\\Input\\InputInterface -->
<g id="edge23" class="edge"><title>\\Freyja\\CLI\\Input\\Input&#45;&gt;\\Freyja\\CLI\\Input\\InputInterface</title>
<path fill="none" stroke="black" stroke-dasharray="1,5" d="M658.367,-1442C590.92,-1442 459.087,-1442 379.242,-1442"/>
<polygon fill="none" stroke="black" points="378.812,-1438.5 368.812,-1442 378.812,-1445.5 378.812,-1438.5"/>
</g>
<!-- \\Freyja\\CLI\\Input\\Argument -->
<g id="node12" class="node"><title>\\Freyja\\CLI\\Input\\Argument</title>
<polygon fill="none" stroke="black" points="1131,-1460 1061,-1460 1061,-1424 1131,-1424 1131,-1460"/>
<text text-anchor="middle" x="1096" y="-1439.1" font-family="Courier,monospace" font-size="11.00">Argument</text>
</g>
<!-- \\Freyja\\CLI\\Input\\ArrayInput -->
<g id="node13" class="node"><title>\\Freyja\\CLI\\Input\\ArrayInput</title>
<polygon fill="none" stroke="black" points="1138,-1406 1054,-1406 1054,-1370 1138,-1370 1138,-1406"/>
<text text-anchor="middle" x="1096" y="-1385.1" font-family="Courier,monospace" font-size="11.00">ArrayInput</text>
</g>
<!-- \\Freyja\\CLI\\Input\\ArrayInput&#45;&gt;\\Freyja\\CLI\\Input\\Input -->
<g id="edge25" class="edge"><title>\\Freyja\\CLI\\Input\\ArrayInput&#45;&gt;\\Freyja\\CLI\\Input\\Input</title>
<path fill="none" stroke="black" d="M1053.73,-1393.78C981.159,-1403.7 833.056,-1423.95 753.809,-1434.78"/>
<polygon fill="none" stroke="black" points="752.999,-1431.36 743.565,-1436.18 753.947,-1438.29 752.999,-1431.36"/>
</g>
<!-- \\Freyja\\CLI\\Input\\Option -->
<g id="node14" class="node"><title>\\Freyja\\CLI\\Input\\Option</title>
<polygon fill="none" stroke="black" points="1124,-1352 1068,-1352 1068,-1316 1124,-1316 1124,-1352"/>
<text text-anchor="middle" x="1096" y="-1331.1" font-family="Courier,monospace" font-size="11.00">Option</text>
</g>
<!-- \\Freyja\\CLI\\Input\\Definition -->
<g id="node15" class="node"><title>\\Freyja\\CLI\\Input\\Definition</title>
<polygon fill="none" stroke="black" points="1138,-1298 1054,-1298 1054,-1262 1138,-1262 1138,-1298"/>
<text text-anchor="middle" x="1096" y="-1277.1" font-family="Courier,monospace" font-size="11.00">Definition</text>
</g>
<!-- \\Freyja\\CLI\\Input\\InputAwareInterface -->
<g id="node16" class="node"><title>\\Freyja\\CLI\\Input\\InputAwareInterface</title>
<polygon fill="none" stroke="black" points="1168,-1244 1024,-1244 1024,-1208 1168,-1208 1168,-1244"/>
<text text-anchor="middle" x="1096" y="-1223.1" font-family="Courier,monospace" font-size="11.00">InputAwareInterface</text>
</g>
<!-- \\Freyja\\CLI\\Exceptions\\InvalidArgumentException -->
<g id="node19" class="node"><title>\\Freyja\\CLI\\Exceptions\\InvalidArgumentException</title>
<polygon fill="none" stroke="black" points="1185,-1162 1007,-1162 1007,-1126 1185,-1126 1185,-1162"/>
<text text-anchor="middle" x="1096" y="-1141.1" font-family="Courier,monospace" font-size="11.00">InvalidArgumentException</text>
</g>
<!-- \\Freyja\\Exceptions\\InvalidArgumentException -->
<g id="node58" class="node"><title>\\Freyja\\Exceptions\\InvalidArgumentException</title>
<ellipse fill="none" stroke="black" cx="701" cy="-72" rx="232.138" ry="18.3848"/>
<text text-anchor="middle" x="701" y="-68.4" font-family="Times Roman,serif" font-size="14.00" fill="gray">\Freyja\Exceptions\InvalidArgumentException</text>
</g>
<!-- \\Freyja\\CLI\\Exceptions\\InvalidArgumentException&#45;&gt;\\Freyja\\Exceptions\\InvalidArgumentException -->
<g id="edge27" class="edge"><title>\\Freyja\\CLI\\Exceptions\\InvalidArgumentException&#45;&gt;\\Freyja\\Exceptions\\InvalidArgumentException</title>
<path fill="none" stroke="black" d="M1007.06,-1125.72C1003.74,-1123.16 1000.69,-1120.27 998,-1117 878.845,-972.321 1017.85,-443.628 934,-276 891.85,-191.734 798.222,-127.241 743.347,-94.9369"/>
<polygon fill="none" stroke="black" points="744.965,-91.8294 734.558,-89.8432 741.455,-97.8858 744.965,-91.8294"/>
</g>
<!-- \\Freyja\\CLI\\Exceptions\\InvalidOptionException -->
<g id="node20" class="node"><title>\\Freyja\\CLI\\Exceptions\\InvalidOptionException</title>
<polygon fill="none" stroke="black" points="1178,-1108 1014,-1108 1014,-1072 1178,-1072 1178,-1108"/>
<text text-anchor="middle" x="1096" y="-1087.1" font-family="Courier,monospace" font-size="11.00">InvalidOptionException</text>
</g>
<!-- \\Freyja\\CLI\\Exceptions\\InvalidOptionException&#45;&gt;\\Freyja\\Exceptions\\InvalidArgumentException -->
<g id="edge29" class="edge"><title>\\Freyja\\CLI\\Exceptions\\InvalidOptionException&#45;&gt;\\Freyja\\Exceptions\\InvalidArgumentException</title>
<path fill="none" stroke="black" d="M1013.06,-1073.25C1007.38,-1069.63 1002.24,-1065.27 998,-1060 888.413,-923.815 1012.63,-432.119 934,-276 891.619,-191.85 798.076,-127.314 743.277,-94.9716"/>
<polygon fill="none" stroke="black" points="744.906,-91.8699 734.501,-89.8716 741.389,-97.9222 744.906,-91.8699"/>
</g>
<!-- \\Freyja\\CLI\\Testers\\CommandTester -->
<g id="node22" class="node"><title>\\Freyja\\CLI\\Testers\\CommandTester</title>
<polygon fill="none" stroke="black" points="1148,-1026 1044,-1026 1044,-990 1148,-990 1148,-1026"/>
<text text-anchor="middle" x="1096" y="-1005.1" font-family="Courier,monospace" font-size="11.00">CommandTester</text>
</g>
<!-- \\Freyja\\CLI\\Helpers\\FormatterHelper -->
<g id="node24" class="node"><title>\\Freyja\\CLI\\Helpers\\FormatterHelper</title>
<polygon fill="none" stroke="black" points="1155,-944 1037,-944 1037,-908 1155,-908 1155,-944"/>
<text text-anchor="middle" x="1096" y="-923.1" font-family="Courier,monospace" font-size="11.00">FormatterHelper</text>
</g>
<!-- \\Freyja\\CLI\\Helpers\\Helper -->
<g id="node25" class="node"><title>\\Freyja\\CLI\\Helpers\\Helper</title>
<polygon fill="none" stroke="black" points="743,-917 659,-917 659,-881 743,-881 743,-917"/>
<text text-anchor="start" x="667" y="-904.433" font-family="Courier,monospace" font-size="11.00">«abstract»</text>
<text text-anchor="start" x="680.5" y="-891.233" font-family="Courier,monospace" font-size="11.00">Helper</text>
</g>
<!-- \\Freyja\\CLI\\Helpers\\FormatterHelper&#45;&gt;\\Freyja\\CLI\\Helpers\\Helper -->
<g id="edge31" class="edge"><title>\\Freyja\\CLI\\Helpers\\FormatterHelper&#45;&gt;\\Freyja\\CLI\\Helpers\\Helper</title>
<path fill="none" stroke="black" d="M1036.86,-921.958C960.146,-916.714 827.45,-907.643 753.911,-902.617"/>
<polygon fill="none" stroke="black" points="753.719,-899.095 743.503,-901.905 753.241,-906.079 753.719,-899.095"/>
</g>
<!-- \\Freyja\\CLI\\Helpers\\HelperInterface -->
<g id="node28" class="node"><title>\\Freyja\\CLI\\Helpers\\HelperInterface</title>
<polygon fill="none" stroke="black" points="372,-917 254,-917 254,-881 372,-881 372,-917"/>
<text text-anchor="middle" x="313" y="-896.1" font-family="Courier,monospace" font-size="11.00">HelperInterface</text>
</g>
<!-- \\Freyja\\CLI\\Helpers\\Helper&#45;&gt;\\Freyja\\CLI\\Helpers\\HelperInterface -->
<g id="edge33" class="edge"><title>\\Freyja\\CLI\\Helpers\\Helper&#45;&gt;\\Freyja\\CLI\\Helpers\\HelperInterface</title>
<path fill="none" stroke="black" stroke-dasharray="1,5" d="M658.367,-899C591.862,-899 462.757,-899 382.617,-899"/>
<polygon fill="none" stroke="black" points="382.129,-895.5 372.129,-899 382.129,-902.5 382.129,-895.5"/>
</g>
<!-- \\Freyja\\CLI\\Helpers\\HelperSet -->
<g id="node26" class="node"><title>\\Freyja\\CLI\\Helpers\\HelperSet</title>
<polygon fill="none" stroke="black" points="1134,-836 1058,-836 1058,-800 1134,-800 1134,-836"/>
<text text-anchor="middle" x="1096" y="-815.1" font-family="Courier,monospace" font-size="11.00">HelperSet</text>
</g>
<!-- \\IteratorAggregate -->
<g id="node63" class="node"><title>\\IteratorAggregate</title>
<ellipse fill="none" stroke="black" cx="701" cy="-18" rx="103.238" ry="18.3848"/>
<text text-anchor="middle" x="701" y="-14.4" font-family="Times Roman,serif" font-size="14.00" fill="gray">\IteratorAggregate</text>
</g>
<!-- \\Freyja\\CLI\\Helpers\\HelperSet&#45;&gt;\\IteratorAggregate -->
<g id="edge35" class="edge"><title>\\Freyja\\CLI\\Helpers\\HelperSet&#45;&gt;\\IteratorAggregate</title>
<path fill="none" stroke="black" stroke-dasharray="1,5" d="M1057.25,-816.211C1036.44,-813.094 1012.21,-805.574 998,-788 893.817,-659.121 1049.45,-163.896 934,-45 895.57,-5.42201 832.567,-0.170673 781.758,-3.99925"/>
<polygon fill="none" stroke="black" points="781.424,-0.514996 771.77,-4.87855 782.038,-7.48803 781.424,-0.514996"/>
</g>
<!-- \\Freyja\\CLI\\Helpers\\DescriptorHelper -->
<g id="node27" class="node"><title>\\Freyja\\CLI\\Helpers\\DescriptorHelper</title>
<polygon fill="none" stroke="black" points="1158,-890 1034,-890 1034,-854 1158,-854 1158,-890"/>
<text text-anchor="middle" x="1096" y="-869.1" font-family="Courier,monospace" font-size="11.00">DescriptorHelper</text>
</g>
<!-- \\Freyja\\CLI\\Helpers\\DescriptorHelper&#45;&gt;\\Freyja\\CLI\\Helpers\\Helper -->
<g id="edge37" class="edge"><title>\\Freyja\\CLI\\Helpers\\DescriptorHelper&#45;&gt;\\Freyja\\CLI\\Helpers\\Helper</title>
<path fill="none" stroke="black" d="M1033.41,-876.278C956.177,-881.558 826.216,-890.441 753.791,-895.391"/>
<polygon fill="none" stroke="black" points="753.274,-891.919 743.536,-896.092 753.752,-898.902 753.274,-891.919"/>
</g>
<!-- \\Freyja\\CLI\\Output\\Output -->
<g id="node30" class="node"><title>\\Freyja\\CLI\\Output\\Output</title>
<polygon fill="none" stroke="black" points="355,-685 271,-685 271,-649 355,-649 355,-685"/>
<text text-anchor="start" x="279" y="-672.433" font-family="Courier,monospace" font-size="11.00">«abstract»</text>
<text text-anchor="start" x="292.5" y="-659.233" font-family="Courier,monospace" font-size="11.00">Output</text>
</g>
<!-- \\Freyja\\CLI\\Output\\OutputInterface -->
<g id="node36" class="node"><title>\\Freyja\\CLI\\Output\\OutputInterface</title>
<polygon fill="none" stroke="black" points="158,-717 40,-717 40,-681 158,-681 158,-717"/>
<text text-anchor="middle" x="99" y="-696.1" font-family="Courier,monospace" font-size="11.00">OutputInterface</text>
</g>
<!-- \\Freyja\\CLI\\Output\\Output&#45;&gt;\\Freyja\\CLI\\Output\\OutputInterface -->
<g id="edge39" class="edge"><title>\\Freyja\\CLI\\Output\\Output&#45;&gt;\\Freyja\\CLI\\Output\\OutputInterface</title>
<path fill="none" stroke="black" stroke-dasharray="1,5" d="M270.465,-673.36C241.302,-677.721 201.954,-683.605 168.307,-688.636"/>
<polygon fill="none" stroke="black" points="167.437,-685.227 158.065,-690.168 168.473,-692.15 167.437,-685.227"/>
</g>
<!-- \\Freyja\\CLI\\Output\\StreamOutput -->
<g id="node31" class="node"><title>\\Freyja\\CLI\\Output\\StreamOutput</title>
<polygon fill="none" stroke="black" points="750,-680 652,-680 652,-644 750,-644 750,-680"/>
<text text-anchor="middle" x="701" y="-659.1" font-family="Courier,monospace" font-size="11.00">StreamOutput</text>
</g>
<!-- \\Freyja\\CLI\\Output\\StreamOutput&#45;&gt;\\Freyja\\CLI\\Output\\Output -->
<g id="edge41" class="edge"><title>\\Freyja\\CLI\\Output\\StreamOutput&#45;&gt;\\Freyja\\CLI\\Output\\Output</title>
<path fill="none" stroke="black" d="M651.86,-662.633C578.534,-663.578 441.061,-665.35 365.713,-666.321"/>
<polygon fill="none" stroke="black" points="365.46,-662.824 355.506,-666.452 365.551,-669.823 365.46,-662.824"/>
</g>
<!-- \\Freyja\\CLI\\Output\\ConsoleOutput -->
<g id="node32" class="node"><title>\\Freyja\\CLI\\Output\\ConsoleOutput</title>
<polygon fill="none" stroke="black" points="1148,-717 1044,-717 1044,-681 1148,-681 1148,-717"/>
<text text-anchor="middle" x="1096" y="-696.1" font-family="Courier,monospace" font-size="11.00">ConsoleOutput</text>
</g>
<!-- \\Freyja\\CLI\\Output\\ConsoleOutput&#45;&gt;\\Freyja\\CLI\\Output\\StreamOutput -->
<g id="edge43" class="edge"><title>\\Freyja\\CLI\\Output\\ConsoleOutput&#45;&gt;\\Freyja\\CLI\\Output\\StreamOutput</title>
<path fill="none" stroke="black" d="M1043.95,-694.125C970.575,-687.251 837.084,-674.747 760.074,-667.533"/>
<polygon fill="none" stroke="black" points="760.336,-664.043 750.053,-666.595 759.683,-671.012 760.336,-664.043"/>
</g>
<!-- \\Freyja\\CLI\\Output\\ConsoleOutputInterface -->
<g id="node35" class="node"><title>\\Freyja\\CLI\\Output\\ConsoleOutputInterface</title>
<polygon fill="none" stroke="black" points="395,-749 231,-749 231,-713 395,-713 395,-749"/>
<text text-anchor="middle" x="313" y="-728.1" font-family="Courier,monospace" font-size="11.00">ConsoleOutputInterface</text>
</g>
<!-- \\Freyja\\CLI\\Output\\ConsoleOutput&#45;&gt;\\Freyja\\CLI\\Output\\ConsoleOutputInterface -->
<g id="edge45" class="edge"><title>\\Freyja\\CLI\\Output\\ConsoleOutput&#45;&gt;\\Freyja\\CLI\\Output\\ConsoleOutputInterface</title>
<path fill="none" stroke="black" stroke-dasharray="1,5" d="M1043.83,-716.958C1012.43,-726.809 971.41,-738.01 934,-743 747.906,-767.822 527.702,-753.331 405.86,-741.519"/>
<polygon fill="none" stroke="black" points="406.115,-738.027 395.82,-740.53 405.429,-744.994 406.115,-738.027"/>
</g>
<!-- \\Freyja\\CLI\\Output\\NullOutput -->
<g id="node33" class="node"><title>\\Freyja\\CLI\\Output\\NullOutput</title>
<polygon fill="none" stroke="black" points="743,-626 659,-626 659,-590 743,-590 743,-626"/>
<text text-anchor="middle" x="701" y="-605.1" font-family="Courier,monospace" font-size="11.00">NullOutput</text>
</g>
<!-- \\Freyja\\CLI\\Output\\NullOutput&#45;&gt;\\Freyja\\CLI\\Output\\Output -->
<g id="edge47" class="edge"><title>\\Freyja\\CLI\\Output\\NullOutput&#45;&gt;\\Freyja\\CLI\\Output\\Output</title>
<path fill="none" stroke="black" d="M658.754,-611.765C611.956,-616.198 534.339,-624.33 468,-635 433.634,-640.528 395.324,-648.42 365.39,-654.984"/>
<polygon fill="none" stroke="black" points="364.585,-651.577 355.577,-657.154 366.097,-658.412 364.585,-651.577"/>
</g>
<!-- \\Freyja\\CLI\\Output\\BufferedOutput -->
<g id="node34" class="node"><title>\\Freyja\\CLI\\Output\\BufferedOutput</title>
<polygon fill="none" stroke="black" points="756,-734 646,-734 646,-698 756,-698 756,-734"/>
<text text-anchor="middle" x="701" y="-713.1" font-family="Courier,monospace" font-size="11.00">BufferedOutput</text>
</g>
<!-- \\Freyja\\CLI\\Output\\BufferedOutput&#45;&gt;\\Freyja\\CLI\\Output\\Output -->
<g id="edge49" class="edge"><title>\\Freyja\\CLI\\Output\\BufferedOutput&#45;&gt;\\Freyja\\CLI\\Output\\Output</title>
<path fill="none" stroke="black" d="M645.399,-709.962C598.164,-704.736 528.582,-696.808 468,-689 434,-684.618 395.878,-679.213 365.948,-674.858"/>
<polygon fill="none" stroke="black" points="366.125,-671.347 355.724,-673.364 365.113,-678.273 366.125,-671.347"/>
</g>
<!-- \\Freyja\\CLI\\Output\\ConsoleOutputInterface&#45;&gt;\\Freyja\\CLI\\Output\\OutputInterface -->
<g id="edge59" class="edge"><title>\\Freyja\\CLI\\Output\\ConsoleOutputInterface&#45;&gt;\\Freyja\\CLI\\Output\\OutputInterface</title>
<path fill="none" stroke="black" d="M230.262,-718.628C209.83,-715.573 188.152,-712.331 168.425,-709.381"/>
<polygon fill="none" stroke="black" points="168.712,-705.885 158.305,-707.868 167.677,-712.808 168.712,-705.885"/>
</g>
<!-- \\Freyja\\CLI\\Formatters\\Styles\\Style -->
<g id="node39" class="node"><title>\\Freyja\\CLI\\Formatters\\Styles\\Style</title>
<polygon fill="none" stroke="black" points="1123,-514 1069,-514 1069,-478 1123,-478 1123,-514"/>
<text text-anchor="middle" x="1096" y="-493.1" font-family="Courier,monospace" font-size="11.00">Style</text>
</g>
<!-- \\Freyja\\CLI\\Formatters\\Styles\\StyleInterface -->
<g id="node41" class="node"><title>\\Freyja\\CLI\\Formatters\\Styles\\StyleInterface</title>
<polygon fill="none" stroke="black" points="756,-514 646,-514 646,-478 756,-478 756,-514"/>
<text text-anchor="middle" x="701" y="-493.1" font-family="Courier,monospace" font-size="11.00">StyleInterface</text>
</g>
<!-- \\Freyja\\CLI\\Formatters\\Styles\\Style&#45;&gt;\\Freyja\\CLI\\Formatters\\Styles\\StyleInterface -->
<g id="edge53" class="edge"><title>\\Freyja\\CLI\\Formatters\\Styles\\Style&#45;&gt;\\Freyja\\CLI\\Formatters\\Styles\\StyleInterface</title>
<path fill="none" stroke="black" stroke-dasharray="1,5" d="M1068.85,-496C1007.15,-496 854.934,-496 766.855,-496"/>
<polygon fill="none" stroke="black" points="766.704,-492.5 756.704,-496 766.704,-499.5 766.704,-492.5"/>
</g>
<!-- \\Freyja\\CLI\\Formatters\\Styles\\StyleStack -->
<g id="node40" class="node"><title>\\Freyja\\CLI\\Formatters\\Styles\\StyleStack</title>
<polygon fill="none" stroke="black" points="1138,-460 1054,-460 1054,-424 1138,-424 1138,-460"/>
<text text-anchor="middle" x="1096" y="-439.1" font-family="Courier,monospace" font-size="11.00">StyleStack</text>
</g>
<!-- \\Freyja\\CLI\\Formatters\\OutputFormatter -->
<g id="node42" class="node"><title>\\Freyja\\CLI\\Formatters\\OutputFormatter</title>
<polygon fill="none" stroke="black" points="1155,-406 1037,-406 1037,-370 1155,-370 1155,-406"/>
<text text-anchor="middle" x="1096" y="-385.1" font-family="Courier,monospace" font-size="11.00">OutputFormatter</text>
</g>
<!-- \\Freyja\\CLI\\Formatters\\OutputFormatterInterface -->
<g id="node43" class="node"><title>\\Freyja\\CLI\\Formatters\\OutputFormatterInterface</title>
<polygon fill="none" stroke="black" points="790,-406 612,-406 612,-370 790,-370 790,-406"/>
<text text-anchor="middle" x="701" y="-385.1" font-family="Courier,monospace" font-size="11.00">OutputFormatterInterface</text>
</g>
<!-- \\Freyja\\CLI\\Formatters\\OutputFormatter&#45;&gt;\\Freyja\\CLI\\Formatters\\OutputFormatterInterface -->
<g id="edge51" class="edge"><title>\\Freyja\\CLI\\Formatters\\OutputFormatter&#45;&gt;\\Freyja\\CLI\\Formatters\\OutputFormatterInterface</title>
<path fill="none" stroke="black" stroke-dasharray="1,5" d="M1036.86,-388C974.583,-388 875.409,-388 800.944,-388"/>
<polygon fill="none" stroke="black" points="800.607,-384.5 790.607,-388 800.607,-391.5 800.607,-384.5"/>
</g>
<!-- \\Freyja\\CLI\\Descriptors\\Descriptor -->
<g id="node45" class="node"><title>\\Freyja\\CLI\\Descriptors\\Descriptor</title>
<polygon fill="none" stroke="black" points="743,-324 659,-324 659,-288 743,-288 743,-324"/>
<text text-anchor="start" x="667" y="-311.433" font-family="Courier,monospace" font-size="11.00">«abstract»</text>
<text text-anchor="start" x="667" y="-298.233" font-family="Courier,monospace" font-size="11.00">Descriptor</text>
</g>
<!-- \\Freyja\\CLI\\Descriptors\\DescriptorInterface -->
<g id="node47" class="node"><title>\\Freyja\\CLI\\Descriptors\\DescriptorInterface</title>
<polygon fill="none" stroke="black" points="385,-324 241,-324 241,-288 385,-288 385,-324"/>
<text text-anchor="middle" x="313" y="-303.1" font-family="Courier,monospace" font-size="11.00">DescriptorInterface</text>
</g>
<!-- \\Freyja\\CLI\\Descriptors\\Descriptor&#45;&gt;\\Freyja\\CLI\\Descriptors\\DescriptorInterface -->
<g id="edge55" class="edge"><title>\\Freyja\\CLI\\Descriptors\\Descriptor&#45;&gt;\\Freyja\\CLI\\Descriptors\\DescriptorInterface</title>
<path fill="none" stroke="black" stroke-dasharray="1,5" d="M658.367,-306C595.408,-306 476.345,-306 395.835,-306"/>
<polygon fill="none" stroke="black" points="395.724,-302.5 385.724,-306 395.724,-309.5 395.724,-302.5"/>
</g>
<!-- \\Freyja\\CLI\\Descriptors\\TextDescriptor -->
<g id="node46" class="node"><title>\\Freyja\\CLI\\Descriptors\\TextDescriptor</title>
<polygon fill="none" stroke="black" points="1151,-324 1041,-324 1041,-288 1151,-288 1151,-324"/>
<text text-anchor="middle" x="1096" y="-303.1" font-family="Courier,monospace" font-size="11.00">TextDescriptor</text>
</g>
<!-- \\Freyja\\CLI\\Descriptors\\TextDescriptor&#45;&gt;\\Freyja\\CLI\\Descriptors\\Descriptor -->
<g id="edge57" class="edge"><title>\\Freyja\\CLI\\Descriptors\\TextDescriptor&#45;&gt;\\Freyja\\CLI\\Descriptors\\Descriptor</title>
<path fill="none" stroke="black" d="M1040.24,-306C964.079,-306 828.47,-306 753.851,-306"/>
<polygon fill="none" stroke="black" points="753.74,-302.5 743.74,-306 753.74,-309.5 753.74,-302.5"/>
</g>
<!-- \\SqueezyWeb\\Freyja\\CLI\\FreyjaCLI -->
<g id="node51" class="node"><title>\\SqueezyWeb\\Freyja\\CLI\\FreyjaCLI</title>
<polygon fill="none" stroke="black" points="1134,-166 1058,-166 1058,-130 1134,-130 1134,-166"/>
<text text-anchor="middle" x="1096" y="-145.1" font-family="Courier,monospace" font-size="11.00">FreyjaCLI</text>
</g>
</g>
</svg>
